<?xml version="1.0" encoding="utf-8"?>
<!-- Generator: Adobe Illustrator 21.0.2, SVG Export Plug-In . SVG Version: 6.00 Build 0)  -->
<svg version="1.1" id="Layer_1" xmlns="http://www.w3.org/2000/svg" xmlns:xlink="http://www.w3.org/1999/xlink" x="0px" y="0px"
	 viewBox="0 0 1024 1024" style="enable-background:new 0 0 1024 1024;" xml:space="preserve">
<style type="text/css">
	.st0{opacity:0.2;}
	.st1{fill:#064A77;}
	.st2{fill:none;stroke:#E22348;stroke-width:33.88;stroke-linecap:round;stroke-miterlimit:10;}
	.st3{fill:#FFFFFF;}
	.st4{opacity:0.25;}
	.st5{fill:#044A7B;}
	.st6{fill:#EA1F25;}
</style>
<title>attendance logo</title>
<g class="st0">
	<g>
		<path class="st1" d="M-1234.6,23.9c-2.5,0-5.1-0.6-7.5-1.8c-140.1-69.4-282-69.9-433.7-1.7c-8.5,3.8-18.6,0-22.4-8.5
			c-3.8-8.5,0-18.6,8.5-22.4c78.7-35.4,157.2-53.4,233.1-53.4c0.1,0,0.1,0,0.2,0c77.6,0,154.8,18.7,229.3,55.6
			c8.4,4.2,11.8,14.3,7.7,22.7C-1222.3,20.5-1228.3,23.9-1234.6,23.9z"/>
	</g>
	<g>
		<path class="st1" d="M-1124.9,226.7c-4.8,0-9.5-2-12.8-5.9c-114.4-132.4-239.5-159.2-324.4-158.4c-120.2,1.2-236,58.4-317.7,157
			c-6,7.2-16.7,8.2-23.9,2.2s-8.2-16.7-2.2-23.9c42.9-51.7,96.6-94.4,155.2-123.5c60-29.7,123.3-45.1,188.3-45.7
			c62.9-0.6,124.3,12.8,182.4,40c61.8,28.9,118.3,72.7,168,130.2c6.1,7.1,5.3,17.8-1.8,23.9C-1117.1,225.4-1121,226.7-1124.9,226.7z
			"/>
	</g>
	<g>
		<path class="st1" d="M-1263.8,624.2c-15.9,0-32.1-1.8-48.1-5.5c-29.9-6.8-58.4-20-82.4-38.2c-34.4-26-77-74.9-84.6-160.7
			c-0.8-9.3,6.1-17.5,15.4-18.4c9.4-0.8,17.5,6.1,18.4,15.4c6.5,73.4,42.3,114.8,71.2,136.7c39.7,29.9,93.4,43,140.3,34
			c9.2-1.7,18.1,4.3,19.8,13.5c1.8,9.2-4.3,18.1-13.5,19.8C-1239.1,623.1-1251.4,624.2-1263.8,624.2z"/>
	</g>
	<g>
		<path class="st1" d="M-1542.4,698.1c-4.6,0-9.2-1.9-12.6-5.6c-61.9-68.5-101-134.4-116.2-196.1c-10.1-41.1-8.8-83.7,3.8-123.1
			c11.9-37.3,33.5-71.1,62.5-97.8c59.6-55,141-72.6,217.6-47c79.6,26.7,134.3,94,146.4,180c1.3,9.3-5.1,17.8-14.4,19.1
			s-17.8-5.1-19.1-14.4c-10.3-73-56.5-130-123.7-152.6c-64.7-21.6-133.4-6.7-183.9,39.8c-52.4,48.3-73.5,118.6-56.4,187.9
			c14,56.2,50.5,117.2,108.6,181.5c6.3,6.9,5.7,17.7-1.2,23.9C-1534.3,696.7-1538.3,698.1-1542.4,698.1z"/>
	</g>
	<g>
		<path class="st1" d="M-1351.9,703.4c-1.8,0-3.6-0.3-5.3-0.9c-42.6-14.1-79.8-33.6-110.6-58c-32.9-25.9-59.5-58.1-79.3-95.6
			c-16.2-30.5-26-62.2-29-94.1c-3.9-41.6,4-77,23-102.6c17.1-23,42.9-37.5,72.7-40.8c60.5-6.8,131.9,34,142,111.5
			c2.4,18.2,9.1,34.3,19.4,46.4c28.3,33.4,75.9,39.5,110.6,14.2c22.4-16.5,34.9-44,33.5-73.6c-4.2-78.8-45.6-151.4-113.6-199
			c-67.4-47.4-153.6-63.2-236.6-43.4c-86.3,20.5-150.6,65.3-185.9,129.6c-40,72.9-42.2,166.3-6.3,270.2c3.1,8.8-1.6,18.5-10.5,21.5
			s-18.5-1.6-21.5-10.5c-19.3-55.7-28.4-109.5-27-160c1.4-50.8,13.4-97.1,35.6-137.6c40-72.9,111.9-123.5,207.7-146.3
			c92.4-22.1,188.6-4.4,263.9,48.6c76.5,53.6,123.1,135.6,127.9,224.9c2,41-15.7,79.3-47.3,102.6c-23.9,17.4-53,24.9-82.1,21.2
			c-28.8-3.7-55.3-18.2-74.5-40.8c-14.5-17.2-23.8-39.2-27.1-63.9c-7.4-57.2-60.1-87.3-104.6-82.3c-46.9,5.2-71.5,45.1-65.7,106.5
			c2.6,27.5,11.1,54.9,25.2,81.5c34.6,65.7,90.4,110.6,170.7,137.3c8.9,3,13.7,12.5,10.7,21.4
			C-1338.2,699-1344.8,703.4-1351.9,703.4z"/>
	</g>
</g>
<g>
	<path class="st2" d="M1602.3-1089.9c152.2-68.5,301.5-70.7,448.2,1.9"/>
	<path class="st2" d="M1492.2-886.4c162.1-195.5,460.8-238.9,667.9,1.2"/>
	<path class="st2" d="M1823-676.5c13.1,147.6,140.4,203.3,231.6,185.9"/>
	<path class="st2" d="M1742.7-413.7c-59.5-65.8-97.5-128.7-112.3-188.8c-38.7-157.3,108.4-299.1,262.1-247.8
		c67.8,22.7,122.9,80.3,135,166.3"/>
	<path class="st2" d="M1551.7-521.9c-70.2-202.8,1.7-373.6,204.2-421.8c86.2-20.6,177.6-5.1,250.2,46
		c71.1,49.9,116.2,126.3,120.8,212c1.7,34.4-12.8,67.8-40.4,88.1c-42.1,30.7-99.7,23-133.6-16.9c-13.1-15.5-20.6-35.1-23.2-55.2
		c-16.2-125.1-220.2-144.2-204,28.1c2.9,30.7,12.6,60.5,27.1,87.8c38.5,73.1,100.9,119.1,180.3,145.4"/>
</g>
<g>
	<circle class="st3" cx="512" cy="512" r="512"/>
	<g class="st4">
		<path class="st1" d="M512.1,803.3c-8,0.1-14.6-6.3-14.7-14.3c0-1.1,0.1-2.1,0.3-3.1c19.2-91.7,26-170.2,0.5-278.3
			c-1.8-7.8,3-15.5,10.8-17.4c7.8-1.8,15.5,3,17.4,10.8l0,0c26.8,113.4,19.7,195.4-0.3,290.9C524.6,798.4,518.9,803.2,512.1,803.3z"
			/>
		<path class="st1" d="M470.6,922.7c-8,0.1-14.6-6.3-14.6-14.3c0-2.4,0.5-4.8,1.7-7c12.8-23.9,14.3-28,24.6-58.3
			c2.6-7.5,10.8-11.6,18.3-9c7.5,2.6,11.6,10.8,9,18.3c-10.8,31.9-12.9,37.5-26.5,62.7C480.7,919.8,475.8,922.6,470.6,922.7z"/>
		<path class="st1" d="M542.6,926.8c-8,0.1-14.6-6.3-14.7-14.3c0-1.9,0.4-3.8,1-5.6c29.3-72,41-120.5,48.7-199.6
			c0.8-7.9,7.8-13.8,15.7-13s13.8,7.8,13,15.7l0,0c-7.9,81.3-20.6,133.7-50.7,207.7C553.6,923.1,548.5,926.7,542.6,926.8z"/>
		<path class="st1" d="M403.4,906.5c-8,0.1-14.6-6.3-14.7-14.3c0-2.2,0.4-4.4,1.4-6.4c53.3-112,67.9-222.1,47.8-357.2
			c-4.6-30.9,5.8-61.9,27.8-82.6l0.3-0.2c27.7-24.8,61.3-24.7,92.3,0.3c20,16.1,34.2,39.4,40,65.7c10.2,46.2,11.9,82.9,11.5,134.5
			c-0.1,8-6.6,14.4-14.6,14.4s-14.4-6.6-14.4-14.6c0.4-49.4-1.3-84.5-10.9-128.1c-4.4-19.8-15-37.3-29.8-49.3
			c-26.5-21.3-43.9-11-54.7-1.4c-15,14.2-22.1,35.5-18.9,57c10.1,67.2,11.8,124.7,5.6,181.1c-7.3,65.9-25.4,128.9-55.8,192.8
			C414,903.1,408.9,906.4,403.4,906.5z"/>
		<path class="st1" d="M139.1,657.6c-6.2,0.1-11.9-3.8-13.8-9.7c-32-92.2-34.6-158.5-10-253c2-7.7,9.9-12.3,17.7-10.3
			c7.7,2,12.3,9.9,10.3,17.7l0,0c-23.3,89.4-21,149,9.3,236.1c2.6,7.6-1.4,15.8-9,18.4C142.2,657.2,140.7,657.5,139.1,657.6
			L139.1,657.6z"/>
		<path class="st1" d="M151.8,352.7c-8,0.1-14.6-6.3-14.7-14.3c0-2.6,0.6-5.1,1.9-7.3c91.1-158.7,200.4-228.6,365.4-233.8
			c8-0.3,14.7,6,14.9,14c0.2,8-6,14.7-14,14.9l0,0c-155.7,5-254.6,68.5-341.2,219.3C161.6,349.8,156.9,352.6,151.8,352.7z"/>
		<path class="st1" d="M910.9,509.9c-7.7,0.1-14.2-5.9-14.6-13.6c-11.5-198.9-123-322.6-331.6-368.1c-7.8-1.7-12.7-9.4-11-17.3
			c1.7-7.8,9.4-12.7,17.3-11c112.9,24.5,200.2,71.5,259.4,139.6c56.9,65.4,88.9,151.3,94.8,255.1c0.5,8-5.6,14.8-13.6,15.3
			L910.9,509.9z"/>
		<path class="st1" d="M181.1,748.4c-8,0.1-14.6-6.3-14.7-14.3c0-2,0.3-4,1.1-5.8c22.4-52.8,14.6-101.3,6.2-152.7
			c-7.9-48.7-16.1-99-0.1-156.7c17.8-64.7,64.1-128.4,141.8-194.9c6-5.2,15.2-4.5,20.4,1.5c5.2,6,4.5,15.2-1.5,20.4
			C172.1,384.9,187.5,479.5,202.4,571c8.7,53.2,17.6,108.2-8.1,168.6C191.9,744.9,186.8,748.4,181.1,748.4z"/>
		<path class="st1" d="M858.1,576.4c-7.8,0.1-14.3-6-14.7-13.8C837.5,419.4,783.3,306.3,691,244c-85-57.3-198.3-67-310.6-26.8
			c-7.6,2.5-15.7-1.5-18.3-9.1c-2.5-7.4,1.3-15.3,8.6-18.1c60.5-21.7,120.7-30.1,178.8-24.9s111.2,23.7,157.7,55
			c48.6,32.8,87.5,77.9,115.7,134.1c29.6,59.2,46.3,128.9,49.5,207.2c0.3,8-5.8,14.7-13.8,15.1L858.1,576.4z"/>
		<path class="st1" d="M859.2,730c-8,0.1-14.6-6.3-14.7-14.3l0,0l-1.3-98.8c-0.1-8,6.3-14.6,14.2-14.7s14.6,6.3,14.7,14.2l0,0
			l1.3,98.8C873.5,723.3,867.1,729.9,859.2,730z"/>
		<path class="st1" d="M781.2,834.3c-8,0.1-14.6-6.3-14.7-14.3c0-0.6,0-1.2,0.1-1.7c16.5-152.3,15.7-261.6-2.7-344.2
			c-20.8-93.2-65.5-155.6-136.6-190.4c-7.1-3.5-10.2-12.2-6.6-19.3c3.6-7.1,12.2-10.2,19.3-6.6c79.5,39,129.2,107.6,152.1,210.1
			c19.1,85.7,20.2,198.1,3.3,353.6C794.6,828.6,788.5,834.2,781.2,834.3z"/>
		<path class="st1" d="M623.5,912.6c-8,0.1-14.6-6.2-14.7-14.2c0-1.3,0.2-2.6,0.4-3.9c71.7-273.5,34.1-427.4-24.9-480.1
			c-30.9-27.6-70.5-32.4-117.7-14.2c-7.5,2.9-15.8-0.8-18.7-8.3s0.8-15.8,8.3-18.7c57.3-22.1,108.3-15.4,147.5,19.6
			c40.5,36.2,65.3,100.9,71.8,187.1c6.8,89.3-6.4,200.6-38.3,322C635.7,908.2,630,912.5,623.5,912.6z"/>
		<path class="st1" d="M343.6,884.7c-8,0.1-14.6-6.3-14.6-14.3c0-2.5,0.6-5,1.8-7.1c65.4-118.2,52.5-212.1,42.1-287.6
			c-8.9-65-16.7-121.2,30.6-166.1c5.8-5.5,14.9-5.3,20.4,0.5s5.3,14.9-0.5,20.4c-36.6,34.8-30.4,79.4-21.9,141.2
			c5.4,39.2,11.5,83.7,7.5,134.4c-4.5,58.9-21.9,114.9-53,171.1C353.6,881.8,348.8,884.7,343.6,884.7z"/>
		<path class="st1" d="M282,849.6c-8,0.1-14.6-6.2-14.7-14.2c0-2.9,0.7-5.6,2.3-8c19.9-31.1,22.7-43.1,30.7-84.4
			c1.5-7.8,9.1-13,17-11.4c7.8,1.5,13,9.1,11.4,17l0,0c-8.4,43.6-12.1,59.2-34.8,94.5C291.4,846.9,286.9,849.5,282,849.6z"/>
		<path class="st1" d="M325.1,705.2c-0.7,0-1.3,0-2-0.1c-7.9-1-13.6-8.2-12.6-16.1l0,0c5.5-45,0.7-84.9-3.9-123.6
			c-7.1-58.3-13.7-113.3,21.7-166.6c19.1-30.8,45.9-56.1,77.6-73.6c31.1-17.1,65.6-26.8,100.9-28.4c71.1-3.3,134.7,25.6,174.7,79.2
			c4.8,6.4,3.5,15.5-2.9,20.2s-15.5,3.5-20.2-2.9l0,0c-34.1-45.8-88.9-70.4-150.2-67.6c-65.3,3-123.3,36-155.4,88.4l-0.3,0.5
			c-29.5,44.5-24,89.9-17.1,147.3c4.6,38.4,9.9,82.1,3.9,130.6C338.4,699.7,332.4,705.2,325.1,705.2z"/>
		<path class="st1" d="M230.8,808.1c-8,0.1-14.6-6.3-14.7-14.3c0-2.7,0.6-5.3,2-7.5c44.2-75.1,34.4-138.2,24-204.9
			c-7.7-49.6-15.7-100.9,1.7-154.9c18.6-64.8,75.6-128.8,149.2-167c65.2-33.8,133.7-42.5,187.9-23.6c7.5,2.6,11.5,10.9,8.9,18.4
			c-2.6,7.5-10.9,11.5-18.4,8.9c-46.7-16.3-106.9-8.3-165,21.9c-66.8,34.8-118.4,92-134.8,149.7l-0.2,0.5
			c-15.4,47.6-8.3,93.3-0.7,141.8c10.7,68.9,21.8,140-27.6,224C240.6,805.3,235.9,808,230.8,808.1z"/>
		<path class="st1" d="M702.5,873.3c-8,0.1-14.6-6.3-14.7-14.3c0-1.2,0.1-2.3,0.4-3.4c37.4-161.6,36.6-277.2-2.8-412.3
			c-2.2-7.7,2.2-15.7,9.8-17.9s15.7,2.2,17.9,9.8c21.4,73.1,31.3,139.9,31.3,210c-0.1,65.5-9,134.4-28.1,216.9
			C714.8,868.7,709.1,873.2,702.5,873.3z"/>
	</g>
	<g id="Layer_2-2_1_">
		<g id="Layer_1-2-2_1_">
			<g id="Layer_2-2-2_1_">
				<g id="Layer_1-2-2-2_1_">
					<path class="st5" d="M351.6,382.3c-5.6-63.9,2.9-102.2,29.9-107.3c48.8-1.7,49.2,29.8,58.6,50.5c5,10.8,16.6,17.1,28.4,15.4
						c132.4-17.5,216.6-80.1,364.4-105c3.8-0.6,7.3,1.9,8,5.6c0,0.1,0,0.2,0,0.3c0,0.5,0.2,1,0,1.3c-1.8,33.9-28.2,50.3-78.2,50.2
						c-9.7-0.1-19.5,1-29,3.1c-93.7,22.1-187,51.5-280.1,87.5c-13.1,5-21.1,18.1-19.8,32.1c5.2,47.6-11.4,126.5,54.6,93.8
						c5.2-2.5,10.5-4.8,15.8-6.8c101.6-37,111.6-110.6,163.9-82.2c20.3,20.3,13.5,51.7-42.7,58.3c-33.9,4.1-67.1,28-147.8,72.1
						c-9.5,5.3-15.3,15.2-15.3,26c0.5,48.5-9.1,111.2,22.1,144.6c4.6,4.6,8.1,10.3,10.5,16.4c6.3,18.5,0.4,38.1-20.3,46.5
						c-19.4,8.1-41.7,1.6-55.4-14.2c-41.7-48.6-40.5-102.8-38.7-159.8c0.2-4-2.9-7.4-7-7.6c-0.1,0-0.2,0-0.2,0c-0.6,0-1.3,0-2,0.2
						c-20.8,5.3-36,32.8-70.2,49.3c-4.9,2.2-10.8,0.1-13.1-4.8c0,0,0-0.1-0.1-0.1c-0.8-1.7-1.1-3.7-0.8-5.5
						c3.9-24.3,24.7-50.8,81.7-63c4.5-0.9,7.7-4.7,7.8-9.3c1.8-49-2.2-94.4-12-136.3c-2.8-12.2-14.8-19.9-27.1-17.1h-0.1
						c-1,0.2-2.1,0.5-2.9,0.8c-88.6,33.9-141,102.6-151.1,77.4c-6.7-48.2,68.2-64.3,161.7-102.6C349.3,390.4,352,386.5,351.6,382.3z
						"/>
				</g>
			</g>
		</g>
	</g>
</g>
<g>
	<rect x="1280.2" y="-14.3" class="st3" width="1085.7" height="1070.2"/>
	<g id="Layer_2-2">
		<g id="Layer_1-2-2">
			<g id="Layer_2-2-2">
				<g id="Layer_1-2-2-2">
					<path class="st6" d="M1656.7,281.1c-5.8-65.4,3-104.5,31-109.8c50.6-1.7,51,30.4,60.8,51.7c5.2,11.1,17.2,17.5,29.5,15.8
						c137.3-17.9,224.6-81.9,378-107.3c3.9-0.6,7.5,1.9,8.3,5.7c0,0.1,0,0.2,0,0.3c0,0.5,0.2,1,0,1.4c-1.9,34.6-29.3,51.5-81.1,51.3
						c-10.1-0.1-20.3,1-30.1,3.2c-97.2,22.6-194,52.7-290.6,89.5c-13.6,5.1-21.9,18.5-20.5,32.8c5.4,48.7-11.9,129.4,56.6,95.9
						c5.4-2.6,10.9-5,16.4-7c105.4-37.8,115.7-113.1,170-84c21,20.7,14,52.8-44.3,59.6c-35.1,4.2-69.6,28.7-153.3,73.7
						c-9.8,5.4-15.9,15.6-15.9,26.6c0.5,49.6-9.5,113.7,22.9,147.9c4.8,4.7,8.5,10.5,10.9,16.8c6.5,18.9,0.4,38.9-21,47.5
						c-20.2,8.3-43.2,1.6-57.5-14.5c-43.2-49.7-42-105.1-40.1-163.4c0.2-4.1-3-7.6-7.2-7.8c-0.1,0-0.2,0-0.2,0c-0.6,0-1.4,0-2,0.2
						c-21.6,5.4-37.3,33.6-72.8,50.5c-5.1,2.3-11.2,0.1-13.6-5c0,0,0-0.1-0.1-0.1c-0.9-1.7-1.1-3.7-0.9-5.6
						c4-24.8,25.6-51.9,84.7-64.4c4.7-0.9,8-4.8,8.1-9.5c1.9-50.1-2.2-96.5-12.5-139.3c-2.9-12.4-15.4-20.3-28.1-17.5h-0.1
						c-1,0.2-2.1,0.5-3,0.8c-91.9,34.6-146.2,104.9-156.7,79.1c-6.9-49.2,70.8-65.7,167.8-104.9
						C1654.3,289.4,1657,285.4,1656.7,281.1z"/>
				</g>
			</g>
		</g>
	</g>
	<g>
		<path class="st5" d="M1493.3,892.8c-0.1-0.1-0.2-0.3-0.2-0.6s0-0.5,0-0.6c0-0.8,0.2-1.5,0.5-2s0.8-0.9,1.3-1.3
			c0.1-0.1,0.3-0.3,0.5-0.5c0.3-0.2,0.5-0.4,0.7-0.6c0.1-0.1,0.3-0.3,0.4-0.4c-0.3-13-0.4-24.2-0.5-33.9c-0.1-9.6-0.3-19-0.4-28
			c0-8.3,0.1-16.9,0.2-25.7s0.4-18.9,0.7-30.4c-0.1-0.6-0.2-1.2-0.3-1.7c-0.1-0.5-0.1-1.1,0.1-1.6c0-2.6,0.8-4.7,2.4-6.6
			s4.7-2.7,9.3-2.7c0.6,0,1.3,0,2,0s1.6,0.1,2.4,0.2c2.2,0.3,3.7,0.5,4.5,0.9s1.5,0.8,2.1,1.5c0.3,0.3,0.5,0.5,0.7,0.7
			c0.3,0.3,0.5,0.5,0.7,0.9c0.9-0.3,1.7-0.5,2.6-0.7c0.9-0.3,1.7-0.5,2.4-0.9c1.1-0.4,2.2-0.7,3.4-1.2c1.1-0.4,2.3-0.8,3.5-1.2
			c0.5-0.1,0.9-0.3,1.3-0.5c0.4-0.3,0.7-0.5,1.1-0.9c0.1,0,0.3-0.1,0.4-0.2c0.7-0.6,1.7-1.1,2.7-1.6c1.1-0.4,2.8-0.6,5.3-0.6
			c1,0,2,0.2,3.2,0.5c1.1,0.3,2.3,0.7,3.5,1.2c2.8,1.2,5.5,3,7.8,5.3c2.4,2.3,3.6,4.8,3.7,7.5c0.1,4.1-1,6.8-3.4,8.3
			s-5.1,2.4-8.1,2.6c-1.2,0.1-2.4,0.2-3.5,0.2s-2.2,0-3.2,0c-0.4,0-0.7,0-1,0s-0.6,0-0.9,0c-0.5,0-1,0-1.5,0s-0.9,0.1-1.1,0.2
			c-0.9,0.4-1.8,0.8-2.9,1.3s-2.1,1-3,1.5c-0.3,0.1-0.5,0.3-0.7,0.4c-0.3,0.1-0.5,0.3-0.7,0.4c-1.8,0.7-3.4,1.5-5.1,2.2
			s-3,1.3-4.2,1.6c-0.3,2.2-0.5,4.5-0.6,6.8c-0.2,2.3-0.3,4.7-0.3,7.2c-0.1,4.4-0.2,8.6-0.1,12.8s0.2,7.5,0.3,10.4
			c0.1,2.1,0.3,4.3,0.4,6.6c0.6-0.5,1.3-1,2.1-1.6c0.8-0.5,1.7-1.1,2.5-1.6c0.5-0.3,1-0.5,1.4-0.8s0.9-0.6,1.4-1
			c0.9-1,1.7-1.8,2.4-2.6c0.5-0.4,1-0.7,1.5-1s1-0.6,1.5-0.8c0.4-0.3,0.7-0.4,1-0.5s0.6-0.1,1-0.1c0.7,0,1.6,0.1,2.4,0.4
			c0.9,0.3,1.7,0.5,2.6,0.9c3.2,1.2,6.3,3.3,9,6.3c2.8,3,4.3,6.2,4.5,9.4c0,0.1,0,0.2,0,0.3s0,0.2,0,0.3c0,0.7-0.1,1.5-0.3,2.2
			c-0.2,0.7-0.5,1.5-0.9,2.2c-1.1,2.1-2.7,3.3-4.7,3.7s-4.2,0.6-6.5,0.7c-0.1,0-0.2,0-0.3,0c-0.1,0-0.2,0-0.3,0
			c-2,0.1-3.9,0.3-5.8,0.5c-1.9,0.3-3.6,1.1-5.2,2.4c-1.5,0.5-2.8,1.2-3.8,2.1c-1.1,0.9-2.1,1.8-3,2.8c-0.1,0.3-0.3,0.4-0.4,0.5
			s-0.3,0.3-0.4,0.4c-0.3,0.4-0.5,0.7-0.9,1c-0.3,0.3-0.6,0.6-0.9,0.8c-0.3,2-0.4,4.3-0.5,7.1c-0.1,2.7-0.1,5.6-0.1,8.5
			c0,2.8,0.1,5.5,0.1,8.2c0.1,2.6,0.2,4.9,0.3,6.9c0,0.8,0.1,1.6,0.1,2.2s0.1,1.2,0.1,1.6c0.4,0.8,0.6,1.7,0.7,2.5s0.2,1.5,0.2,2.1
			c0,2-0.5,3.7-1.7,5.2c-1.1,1.5-2.7,2.8-4.8,4c-0.9,0.5-1.8,0.8-2.8,1s-2,0.3-3.2,0.3c-0.6,0-1.2-0.1-1.9-0.1
			c-0.6-0.1-1.2-0.2-1.9-0.3c-3.1-0.7-6-2.2-8.7-4.3s-4.4-4.8-5-8.2L1493.3,892.8L1493.3,892.8z"/>
		<path class="st5" d="M1559.9,900.8c-2.3-2.4-3.4-5.1-3.4-8c0-1.5,0.3-2.9,1-4.3c0.7-1.4,1.8-2.7,3.3-4c0.6-2.8,1.2-5.6,1.8-8.5
			c0.5-2.8,1.1-5.8,1.8-8.7c4-17.7,8.5-35.2,13.7-52.2c5.1-17.1,10.7-32.5,16.6-46c-0.1-0.7-0.2-1.5-0.3-2.2
			c-0.1-0.7-0.1-1.5-0.1-2.4c0-2.4,0.5-4.8,1.4-7.1s2.6-3.9,4.9-4.8c1-0.5,2.1-0.8,3.3-1c1.2-0.2,2.4-0.3,3.6-0.3
			c0.7,0,1.6,0.1,2.4,0.2c0.9,0.1,1.7,0.3,2.6,0.4c2.4,0.4,4.7,1,6.9,1.8c2.2,0.8,4,2,5.4,3.3c0.7,0.7,1.3,1.7,1.7,3
			c0.4,1.2,0.5,2.5,0.5,3.8c0,0.5-0.1,1-0.1,1.6c-0.1,0.5-0.1,1.1-0.1,1.6c-0.3,1.4-0.6,2.7-1.2,4.1c-0.5,1.4-1.2,2.6-2,3.7
			c1.3,12.1,3.3,23.7,5.8,34.6c2.5,11,5,21.4,7.6,31c0.4,1,0.7,2,1,3.1s0.6,2.2,0.9,3.1c0.7-0.1,1.5-0.3,2.3-0.5s1.5-0.4,2.1-0.6
			c1.9-0.5,3.6-0.9,5.1-1.3c1.6-0.4,2.9-0.5,4.2-0.5c0.6,0,1.3,0.1,2,0.3s1.3,0.5,1.8,0.8c1.9,1.5,3.3,3.1,4.4,4.7
			c1.1,1.7,1.7,3.4,2,5.1c0.1,0.4,0.2,0.7,0.2,1.1s0,0.7,0,1.1c0,1.2-0.2,2.5-0.5,3.7c-0.4,1.3-0.9,2.5-1.5,3.6
			c-0.9,1.4-2.2,2.2-4,2.6c-1.8,0.4-3.7,0.6-5.7,0.7c-0.3,0-0.5,0-0.9,0s-0.6,0-1,0s-0.7,0-1.1,0s-0.7,0-1.1,0
			c0.1,1.1,0.4,2.3,0.9,3.7s1.1,2.7,1.7,4.1c0.4,0.8,0.7,1.7,1.1,2.5s0.7,1.6,1.1,2.3c1.1,1.8,2.1,3.5,3,5.1c0.9,1.5,1.5,2.5,1.9,3
			c1.3,1,2.5,2.2,3.3,3.7s1.3,3,1.6,4.6c0,0.1,0,0.3,0,0.5s0,0.4,0,0.6c-0.1,2-0.7,3.7-1.8,5.3c-1.1,1.6-2.8,2.6-5.3,3.1
			c-0.6,0.3-1.3,0.4-2,0.4s-1.4,0-2.1,0c-0.4,0-0.7,0-1.1,0s-0.7-0.1-1.1-0.2c-2.5-0.1-4.9-0.7-7.2-1.6c-2.3-1-4-2.2-5.1-3.5
			c-0.4-0.5-0.6-1-0.9-1.5c-0.2-0.5-0.3-1-0.5-1.5c-0.3-0.7-0.4-1.5-0.4-2.3s0-1.5,0-2.1c0-0.1,0-0.3,0-0.5s0-0.3,0-0.5
			c0-0.1-0.1-0.3-0.1-0.5c-0.1-0.2-0.1-0.3-0.1-0.5c-0.4-0.4-1-1.5-2-3.3c-0.9-1.8-1.9-3.8-2.9-6.1c-0.1-0.3-0.2-0.5-0.3-0.6
			c-0.1-0.2-0.2-0.4-0.3-0.6c-1.2-2.7-2.8-6.2-4.7-10.6c-8.2,1.2-14.7,2.2-19.5,3c-0.5,0.1-1.1,0.2-1.7,0.3s-1.2,0.2-1.7,0.3
			c-3.1,0.5-6,1-8.7,1.5s-4.7,0.9-6,1.3c-0.1,0.5-0.4,1.4-0.9,2.6c-0.4,1.3-1,2.6-1.6,4.1c-0.1,0.4-0.3,0.7-0.4,1.1
			c-0.1,0.4-0.3,0.8-0.5,1.3c-0.4,1.1-0.7,2.2-0.9,3.3c-0.3,1.1-0.4,2.1-0.5,3c0.3,0.6,0.4,1.2,0.4,1.8s0,1.2,0,1.8
			c0,3.2-1.1,5.6-3.3,7.2s-4.6,2.5-7.3,2.6c-0.1,0-0.3,0-0.5,0s-0.3,0-0.5,0c-0.3,0-0.5,0-0.6,0c-0.2,0-0.4,0-0.6,0
			c-0.3,0-0.5-0.1-0.6-0.1c-0.2-0.1-0.4-0.1-0.6-0.1C1564.9,904.7,1562.3,903.2,1559.9,900.8z M1606.3,805.5c-1,2.3-2,4.6-3,7
			c-1,2.3-1.9,4.6-2.8,7c-2.6,7-4.8,13.7-6.6,20.1c-1.8,6.4-2.9,11.4-3.3,14.9l25.7-4.6c0,0.1-0.6-2.4-2-7.4
			c-1.3-5.1-2.8-11.2-4.4-18.2c-0.5-2.2-1-4.5-1.5-6.8s-0.9-4.6-1.3-7c-0.3-0.8-0.4-1.7-0.5-2.5s-0.3-1.6-0.4-2.3v-0.2H1606.3z"/>
		<path class="st5" d="M1674,895.1c-0.1-0.4-0.3-0.7-0.4-1.2c-0.1-0.4-0.2-0.9-0.2-1.4c0.1-1.3,0.6-2.7,1.4-4.1
			c0.8-1.3,1.8-2.5,2.9-3.5c-0.1-5.7-0.3-13.2-0.5-22.4c-0.3-9.2-0.5-18.7-0.9-28.4c0-0.7,0-1.4,0-2.1c0-0.7,0-1.3,0-2
			c-0.5-14.7-1.1-33.8-1.9-57.4c0.1-1.2,0.1-2.3-0.3-3.2c-0.3-0.9-0.6-1.8-1-2.6c-0.3-0.3-0.4-0.5-0.5-0.8s-0.3-0.6-0.4-0.8
			c-0.1-0.5-0.3-0.9-0.4-1.4c-0.1-0.4-0.2-0.9-0.2-1.4c0-1,0.3-2.1,0.9-3.2c0.6-1.2,1.7-2.4,3.4-3.7c1-1,2.2-1.6,3.7-2
			s3-0.5,4.7-0.4c0.7,0,1.5,0.1,2.3,0.1c0.8,0.1,1.7,0.2,2.5,0.3c3.5,0.7,6.7,2,9.8,3.7c3.1,1.7,5.1,3.6,5.9,5.7
			c0.1,0.3,0.2,0.5,0.3,0.6c0.1,0.2,0.1,0.4,0.1,0.6c0.1,0.3,0.2,0.5,0.2,0.6s0,0.4,0,0.6c-0.1,1.2-0.4,2.4-0.9,3.7
			c-0.5,1.2-1.1,2.4-1.7,3.7c-0.3,0.4-0.5,0.8-0.6,1.2c-0.2,0.4-0.4,0.9-0.6,1.4l1.9,110.9c0,1.2,0.2,2.3,0.5,3.1s0.7,1.7,1.1,2.6
			c0,0.1,0.1,0.3,0.2,0.4c0.4,0.8,0.7,1.7,1,2.6c0.3,0.8,0.5,1.8,0.5,2.7c0,0.4,0,0.7,0,1.1c0,0.4-0.1,0.8-0.4,1.3
			c-0.6,1.7-1.9,2.9-3.7,3.6c-1.9,0.7-3.9,1-6.2,1c-0.4,0-0.7,0-1.1,0s-0.7-0.1-1.1-0.2c-0.5,0-0.9-0.1-1.3-0.1
			c-0.4-0.1-0.7-0.1-1.1-0.1c-5.8-0.8-10-2-12.6-3.3S1675.1,897.7,1674,895.1L1674,895.1L1674,895.1z"/>
		<path class="st5" d="M1720.9,892.5c-0.1-0.3-0.2-0.5-0.2-0.9s0-0.7,0-0.9c0-1.1,0.3-2,0.7-2.6c0.5-0.7,1.1-1.2,1.9-1.6
			c0-0.1,0.1-0.2,0.2-0.3s0.3-0.2,0.4-0.3c0.5-0.4,0.9-0.8,1.3-1.3s0.5-1.1,0.5-1.8l-5.9-104.7c0-1-0.2-2-0.6-3
			c-0.4-1.1-0.9-2.1-1.2-3c-0.5-0.7-0.9-1.5-1.2-2.2s-0.5-1.5-0.6-2.2c-0.1-0.3-0.2-0.5-0.2-0.8s0-0.6,0-0.8c0-0.3,0-0.5,0-0.6
			c0-0.2,0.1-0.4,0.2-0.6c0-0.1,0.1-0.3,0.1-0.5c0.1-0.3,0.2-0.4,0.3-0.5c1.1-2.1,3-3.8,5.7-5.1s5.6-2.2,8.7-2.4c0.4,0,0.7,0,1,0
			s0.6,0,1,0c1.1,0,2.2,0.1,3.4,0.2c1.1,0.1,2.1,0.4,3,0.7c0.7,0.3,1.3,0.5,1.9,0.9c0.5,0.4,0.9,0.8,1.1,1.3
			c0.1,0.3,0.3,0.5,0.4,0.7c0.1,0.3,0.2,0.5,0.2,0.7c0.3,0.4,0.5,0.7,0.7,1c0.3,0.3,0.7,0.5,1.3,0.5h0.2c0,0.1,0.1,0.2,0.2,0.2
			c0.7,0,2.1-0.5,4.2-1.4c2-0.9,4.5-2,7.5-3c3.1-1.2,6.6-2.3,10.4-3.2c3.9-0.9,7.8-1.4,11.9-1.4s8.1,0.7,12.1,2.1
			c4,1.4,7.5,4,10.8,7.8c0.9,0.8,1.5,2,1.9,3.3c0.4,1.4,0.5,2.8,0.5,4.4c0,4.5-1.4,10-4.2,16.4c-2.8,6.4-6.3,13-10.5,19.7
			c-2.8,4.5-5.9,9.1-9.3,13.5c-3.4,4.5-6.7,8.7-10.2,12.5c-2,2.3-4,4.5-6,6.6s-4.1,4-6,5.7l48,32.8c0.7,0.6,1.5,1.1,2.2,1.5
			s1.5,0.7,2.2,1.1c0.4,0.1,0.7,0.3,1.2,0.5c0.4,0.2,0.9,0.3,1.2,0.5c2,0.8,3.8,1.8,5.4,2.8c1.6,1.1,2.7,2.6,3.4,4.8
			c0.1,0.4,0.2,0.7,0.3,1.1c0.1,0.4,0.1,0.7-0.1,1.1c0,3-1.5,5.5-4.5,7.7s-6.4,3.7-9.9,4.4c-1,0.3-2,0.4-2.9,0.5s-1.8,0.2-2.7,0.2
			c-1.4,0-2.6-0.1-3.8-0.4c-1.2-0.3-2.2-0.7-3-1.3c-0.9-0.6-1.5-1.3-2-2c-0.4-0.7-0.8-1.4-1-2.1c-0.1,0-0.2-0.1-0.2-0.2
			c-0.4-0.8-0.8-1.7-1.2-2.5c-0.4-0.8-1.1-1.4-2-2l-41.1-27.3l1.7,16.9c0,0.8,0.3,1.7,0.9,2.6c0.5,0.8,1.1,1.8,1.8,2.7
			c0.7,1.1,1.4,2.2,2,3.4c0.5,1.2,0.9,2.4,0.9,3.6s-0.4,2.4-1.1,3.7c-0.7,1.2-2,2.5-3.9,3.8c-1.1,0.7-2.4,1.3-3.7,1.6
			s-2.8,0.5-4.4,0.5c-0.7,0-1.4-0.1-2.1-0.1c-0.7-0.1-1.4-0.2-2.1-0.3c-3.7-0.7-7.2-2.2-10.3-4.4c-3.2-2.2-5.1-5-5.9-8.3
			L1720.9,892.5L1720.9,892.5z M1745.2,795.6l-0.4,32.8c2.5-2.6,5-5.4,7.4-8.5c2.5-3.1,4.8-6.2,7.1-9.3c4.4-6.5,8.2-12.7,11.2-18.5
			c3-5.9,4.4-10.3,4.4-13.2c0-0.6-0.1-1.2-0.3-1.7c-0.2-0.5-0.5-0.9-0.9-1.2c-0.3-0.3-0.5-0.4-0.9-0.5s-0.7-0.1-1.1-0.1
			c-1.6,0-3.6,0.8-6.2,2.5c-2.5,1.6-5.1,3.6-7.8,6c-0.6,0.6-1.3,1.2-2,1.8s-1.4,1.2-2.1,1.8c-1.6,1.5-3.2,3-4.5,4.4
			c-1.4,1.5-2.8,2.7-4,3.8L1745.2,795.6L1745.2,795.6z"/>
		<path class="st5" d="M1832.2,895.7c0-0.1,0-0.3,0-0.4s0-0.3,0-0.4c0-1,0.3-1.8,0.7-2.6c0.5-0.8,1.1-1.6,1.9-2.3
			c0-0.1,0.1-0.2,0.2-0.3s0.3-0.2,0.4-0.3c0.7-0.8,1.4-1.8,2.1-2.7c0.7-1,1-2.2,1-3.7c-0.3-7.9-0.4-14.8-0.5-20.9
			c-0.1-4.6-0.3-9.7-0.4-15.1c-0.1-5.4-0.2-11-0.2-16.6c-0.1-6.9-0.2-13.6-0.1-20.2c0.1-6.6,0.2-12.4,0.5-17.4
			c-0.6,0.1-1.3,0.3-2,0.5c-0.7,0.3-1.3,0.5-2,0.7c-1.1,0.5-2.2,0.9-3.4,1.3c-1.1,0.4-2.2,0.5-3.4,0.5c-0.5,0-1-0.1-1.4-0.1
			c-0.4-0.1-0.9-0.2-1.2-0.5c-0.5-0.1-1-0.3-1.4-0.5c-0.4-0.3-0.9-0.5-1.4-0.9c-1.4-1.1-2.6-2.1-3.8-3c-1.2-0.9-2.2-1.8-3-2.6
			c-1.1-1.2-2-2.4-2.6-3.6c-0.6-1.2-0.9-2.6-0.9-4.2c0-0.5,0.1-0.9,0.1-1.5c0.1-0.5,0.2-0.9,0.3-1.5c0.3-1.1,2.9-2.5,8.1-4.4
			s11-3.7,17.6-5.6c0.6-0.1,1.2-0.3,1.9-0.5c0.6-0.2,1.2-0.4,1.9-0.6c6.5-2,12.5-3.8,18-5.5c5.6-1.7,9.1-3,10.6-3.8
			c1-0.4,1.8-0.8,2.3-1.3s1.1-0.9,1.6-1.5c0.1-0.1,0.3-0.3,0.4-0.4c0.7-0.7,1.5-1.4,2.3-2s2-0.9,3.4-1.1c0.9-0.1,2.1,0.1,3.6,0.7
			c1.6,0.6,3.2,1.5,4.8,2.7c2.5,1.7,4.8,3.9,6.8,6.6s3,5.5,3,8.6c0,0.8-0.1,1.7-0.4,2.6c-0.3,0.9-0.6,1.8-1.1,2.8
			c-1.1,2-2.7,3.1-4.8,3.4c-2,0.3-4.2,0.4-6.6,0.3h-0.2c-0.5,0-1,0-1.4,0s-0.9,0-1.2,0c-0.3,0-0.5,0-0.6,0c-0.2,0-0.4,0-0.6,0
			c-0.6,0.1-1.2,0.2-1.9,0.3c-0.6,0.1-1.2,0.2-1.7,0.5c-3.2,1.3-5.9,2.4-8,3.3c0,0.1-0.1,0.2-0.2,0.2c-1.8,0.7-3.4,1.4-4.8,2
			c-1.5,0.6-2.5,0.9-3,1.1c-0.1,3-0.2,5.9-0.3,8.8c-0.1,3-0.2,5.9-0.3,8.8c-0.1,11.4-0.1,22.5,0.2,33.3c0.3,10.9,0.5,20.2,0.7,28.2
			c0.4,6.5,0.7,13.5,1.1,21.1c0,1.2,0.2,2.4,0.6,3.6c0.4,1.2,0.9,2.2,1.4,3.2c0.1,0.4,0.3,0.7,0.5,1.1c0.2,0.4,0.3,0.8,0.5,1.3
			c0.3,0.6,0.5,1.2,0.6,1.8c0.2,0.6,0.3,1.2,0.3,1.8s-0.1,1.3-0.4,2s-0.7,1.4-1.3,2.3c-1.4,2.1-3.2,3.5-5.3,4.3
			c-2.2,0.8-4.5,1.2-7,1.2c-0.5,0-1,0-1.4,0s-0.9-0.1-1.2-0.2c-4.3-0.5-8.3-2-11.9-4.3c-3.6-2.4-5.7-5.1-6.3-8.2L1832.2,895.7
			L1832.2,895.7z"/>
		<path class="st5" d="M1907.8,892.1c-0.1-0.1-0.3-0.4-0.4-0.7c-0.1-0.4-0.2-0.8-0.2-1.3c0-0.7,0.1-1.5,0.4-2.3s0.5-1.7,0.9-2.6
			c0.1-0.4,0.3-0.7,0.4-1.2c0.1-0.4,0.3-0.8,0.4-1.2c-0.3-7.1-0.5-13.7-0.6-19.8c-0.2-6.1-0.3-12.2-0.5-18.1
			c-0.3-10.5-0.3-21.6-0.3-33.1c0.1-11.5,0.3-25.8,0.6-42.6c-0.5-0.6-0.9-1.3-1-2c-0.2-0.7-0.3-1.3-0.3-1.7c0-1.7,0.9-3.2,2.6-4.3
			c1.7-1.2,3.6-2.1,5.6-2.6c0.6-0.3,1.2-0.4,1.7-0.5s1-0.2,1.5-0.3c0.1,0,0.2,0,0.3,0c0.1,0,0.2,0,0.3,0s0.3,0,0.4,0
			c0.4,0,0.7,0.1,1.2,0.1c0.4,0.1,0.9,0.2,1.2,0.3c0.7,0.1,1.4,0.3,2.1,0.6s1.3,0.6,2,0.8c0.7,0.4,1.4,0.7,2,1.1
			c0.5,0.4,1,0.6,1.4,0.7c4.6-1.5,8.2-2.6,11-3.5c0.1-0.1,0.3-0.2,0.4-0.2s0.3-0.1,0.4-0.2c2.1-0.6,4.2-1.2,6.2-1.8s3.5-1.1,4.4-1.3
			c0.6-0.3,1.1-0.5,1.6-0.7c0.4-0.3,0.9-0.5,1.4-0.7l0.2-0.2c0.9-0.5,1.8-0.9,2.8-1.4c1-0.4,2.3-0.6,3.9-0.6c0.5,0,1.1,0.1,1.7,0.1
			c0.6,0.1,1.2,0.2,1.9,0.3c0.5,0.1,1,0.3,1.4,0.5s0.9,0.4,1.4,0.6c1.6,1,3.2,2.4,4.7,4.4s2.7,4.1,3.5,6.2c0.4,0.8,0.6,1.7,0.9,2.6
			c0.2,0.8,0.3,1.7,0.3,2.6c0,1-0.2,1.8-0.5,2.6s-0.9,1.5-1.6,2.1c-1.6,1.2-3.3,2.1-5.1,2.6c-1.8,0.5-3.7,0.8-5.9,0.8
			c-1,0-2-0.1-3.2-0.2c-1.1-0.1-2.2-0.3-3.4-0.4c-5.2,1.7-9.4,3.1-12.5,4.2c-1.2,0.6-2.5,1.2-3.8,1.7s-2.5,1.1-3.6,1.7
			c-0.7,0.4-1.4,0.7-2,1.1c-0.5,0.4-1.1,0.7-1.6,1.1c-0.4,5.4-0.6,10.1-0.6,14.1c-0.1,4.1-0.1,7.9-0.1,11.5c0.1,2.8,0.3,5.6,0.4,8.5
			s0.3,6,0.4,9.4c0.3-0.1,0.6-0.3,1.1-0.5s1-0.3,1.5-0.5c0.7-0.1,1.7-0.3,3-0.5c0.6-1.1,1.7-2,3-2.7c1.4-0.7,3-1.1,4.8-1.1
			c0.3,0,0.5,0,0.7,0c0.3,0,0.5,0.1,0.7,0.2c0.3,0,0.5,0.1,0.7,0.1c0.3,0.1,0.5,0.2,0.7,0.3c0.7,0.3,1.5,0.5,2.2,0.8s1.5,0.6,2.2,1
			c3.1,1.5,5.9,3.4,8.4,5.7s3.7,4.7,3.7,7.3c0,0.1,0,0.3,0,0.5c0,0.3-0.1,0.4-0.2,0.5c0,0.3-0.1,0.5-0.1,0.6
			c-0.1,0.2-0.2,0.4-0.3,0.6c-1.2,2.8-2.8,4.7-4.7,5.8c-1.9,1.1-3.8,1.7-5.8,2c-0.4,0-0.7,0-1,0s-0.6,0-1,0c-0.6,0-1.2-0.1-1.9-0.1
			c-0.6-0.1-1.2-0.1-1.9-0.1c-1.2-0.1-2.4-0.2-3.4-0.3s-1.8,0.1-2.4,0.5c-0.6,0.1-1.2,0.3-1.9,0.6c-0.6,0.3-1.2,0.6-1.9,0.8
			c-0.3,0.1-0.5,0.3-0.7,0.4c-0.3,0.1-0.5,0.3-0.9,0.4c-1,0.6-2,1.1-2.9,1.6c-0.9,0.4-1.7,0.8-2.1,1c0,0.7,0,2.2,0,4.3
			c0,2.2,0.1,4.4,0.2,6.9c0.1,2,0.3,3.8,0.4,5.7s0.3,3.3,0.5,4.4c0.9-0.3,2-0.6,3.4-1s2.9-0.9,4.4-1.4c0.9-0.3,1.8-0.5,2.7-0.9
			c0.9-0.4,1.8-0.7,2.5-1.1c0.3-0.1,0.4-0.3,0.5-0.4s0.3-0.3,0.4-0.5c0-0.1,0.1-0.3,0.2-0.5s0.3-0.4,0.4-0.6
			c0.5-0.6,1.2-1.1,2.2-1.6c1-0.4,2.6-0.6,4.8-0.5c0.9,0,1.7,0.2,2.6,0.5s1.8,0.8,2.8,1.4c2.4,1.2,4.6,3,6.7,5.4s3.5,4.8,4.1,7.4
			c0,0.4,0.1,0.8,0.1,1.2c0.1,0.4,0.1,0.8,0.1,1.2c0,0.8-0.2,1.7-0.5,2.6s-0.8,1.8-1.4,2.6c-1.5,2-3.7,3.1-6.6,3.5s-6,0.4-9.2,0.2
			c-0.1,0-0.3,0-0.5,0s-0.3,0-0.5,0l-17.5,8.6c-0.6,0.4-1.2,0.7-1.8,1.2c-0.5,0.4-1.1,0.9-1.8,1.4c-0.1,0.1-0.2,0.2-0.3,0.3
			c-0.1,0.1-0.2,0.2-0.3,0.3c-0.9,0.7-1.8,1.4-2.7,2c-0.9,0.6-2,0.9-3,0.9c-0.3,0-0.5,0-0.9,0s-0.6-0.1-0.9-0.2
			c-4.2-1.2-7.6-3.2-10.3-5.8c-2.7-2.6-5.2-5.8-7.5-9.4L1907.8,892.1L1907.8,892.1z"/>
		<path class="st5" d="M2052.3,843.3c3.4,0.8,5.7,2.1,7.1,3.7c1.3,1.6,2,3.5,2,5.4c0,0.3,0,0.5,0,0.6c0,0.2,0,0.3,0,0.5
			c-0.3,1.8-0.9,3.5-1.9,5.1s-2.1,3-3.4,4.1c-1,2.3-2.2,5.2-3.7,8.6c-1.5,3.4-3.3,6.9-5.4,10.4c-3.4,6.2-7.3,11.9-11.8,17
			s-9.4,7.6-14.4,7.6c-13,0.1-22.3-5.1-27.9-15.5s-9-22-10.4-34.7c-0.3-2.7-0.4-5.3-0.5-8s-0.2-5.2-0.2-7.8c0-3.9,0.1-8,0.3-12.1
			s0.5-8.4,1-12.7c1.9-15.1,5.5-29.1,11-41.9c5.5-12.8,12.8-19.7,22.1-20.8c0.9-0.1,1.7-0.2,2.4-0.2c0.7,0,1.5,0,2.2,0
			c11.4,0,19.4,4.5,23.9,13.7c4.5,9.1,8,20,10.3,32.5c0.1,0.4,0.3,0.8,0.5,1.2c0.2,0.4,0.3,0.9,0.5,1.4c0.3,0.6,0.5,1.3,0.7,2
			c0.2,0.7,0.5,1.4,0.7,2c0.3,0.8,0.4,1.6,0.5,2.4c0.1,0.7,0.2,1.5,0.2,2.2c0,1.7-0.5,3.3-1.7,4.8c-1.1,1.5-3.1,3-5.9,4.3
			c-0.5,0.3-1.1,0.4-1.9,0.5c-0.7,0.1-1.5,0.2-2.2,0.2c-1,0-2-0.1-3-0.3c-1.1-0.2-2.1-0.5-3-0.8c-2.6-0.7-5.1-1.8-7.3-3.4
			c-2.3-1.5-4-3.2-5.1-5.1c-0.3-0.5-0.4-0.9-0.5-1.4c-0.1-0.4-0.2-0.9-0.2-1.4c0-0.8,0.2-1.7,0.5-2.5s0.6-1.6,1-2.3
			c0.3-0.4,0.5-0.7,0.6-1.2c0.2-0.4,0.3-0.8,0.5-1.2c0-0.7-0.1-1.4-0.1-2.1c-0.1-0.7-0.2-1.4-0.3-2.1c-0.6-4.5-1.7-8.7-3.3-12.5
			c-1.6-3.8-3.3-6-5.3-6.5c-0.1,0-0.3,0-0.4,0s-0.3,0-0.4,0c-2.6,0.3-4.8,4.4-6.7,12.5c-1.9,8.1-3.3,17.1-4.3,26.9
			c-0.4,3.5-0.7,7.1-0.9,10.6c-0.3,3.5-0.4,6.9-0.5,9.9c-0.1,2.3-0.2,4.7-0.1,7.2c0.1,2.4,0.2,4.9,0.3,7.3c0.5,8,1.6,15.2,3.2,21.9
			c1.6,6.6,3.9,10.3,6.9,10.9c0.1,0,0.3,0,0.4,0c1,0,2-0.5,3-1.6c1.1-1.1,2.1-2.4,3.3-4.1c1.5-2.6,3-5.6,4.4-9.2
			c1.5-3.5,2.8-7.2,3.9-11c0-0.3,0.1-0.5,0.1-0.7c0.1-0.3,0.2-0.5,0.3-0.7c-0.1-0.6-0.2-1.2-0.3-1.8s-0.1-1.2-0.1-1.6
			c0-3.7,1.3-6.4,3.9-8.3s5.8-2.7,9.7-2.7c1,0,2,0.1,2.9,0.2C2050.3,843,2051.3,843.2,2052.3,843.3L2052.3,843.3L2052.3,843.3z"/>
		<path class="st5" d="M2073,900.6c-0.3-0.5-0.4-1-0.4-1.4c0-0.5,0.2-1,0.5-1.6c0.3-0.5,0.6-1.3,1-2.1c0-3,0-6.2,0-9.7
			s-0.1-7.2-0.2-10.8c0-0.8,0-1.7,0-2.6c0-0.8,0-1.7,0-2.6c0-4.4-0.1-8.6-0.1-12.7c-0.1-4.1-0.1-7.4-0.1-10.1
			c-0.4-0.8-0.8-1.7-1.2-2.5s-0.9-1.6-1.4-2.3c-0.4-0.6-0.7-1.2-1-1.6c-0.3-0.5-0.6-1-0.9-1.5c-0.6-1-1.1-2-1.5-3
			c-0.4-1.1-0.5-2.1-0.5-3.2c0-0.3,0-0.5,0-0.8s0.1-0.6,0.2-0.8c0.1-1,0.5-1.8,1.1-2.4c0.6-0.6,1.3-1.2,2-1.6
			c0.4-0.3,0.7-0.5,1.1-0.7c0.4-0.3,0.7-0.5,1.1-0.7c0.1,0,0.2-0.1,0.3-0.1c0.1-0.1,0.2-0.2,0.3-0.3c0-2.4-0.1-4.7-0.1-6.9
			c-0.1-2.2-0.1-4.1-0.1-5.8c-0.1-5.3-0.2-9.5-0.3-12.8c-0.1-3.2-0.1-6.3-0.1-9.3c0-3.1,0.1-6.4,0.2-10s0.4-8.4,0.7-14.4
			c0-0.1-0.1-0.3-0.2-0.4c-0.1-0.1-0.2-0.3-0.2-0.5c-0.4-0.6-0.7-1.3-0.9-2.1c-0.3-0.8-0.4-1.6-0.4-2.5c0-0.4,0.1-0.7,0.1-1.1
			c0.1-0.4,0.2-0.7,0.5-1.1c0.4-0.7,1-1.5,1.9-2.3s2-1.5,3.4-2.1c0.9-0.4,1.9-0.6,3-0.8c1.2-0.2,2.5-0.3,4-0.3
			c0.7,0,1.5,0.1,2.3,0.1c0.8,0.1,1.7,0.2,2.5,0.3c2.7,0.4,5.3,1.2,7.7,2.4s4.1,2.9,4.9,5c0.3,0.5,0.4,0.9,0.5,1.4
			c0.1,0.4,0.1,0.9,0.1,1.4c0,1.1-0.2,2.1-0.6,3c-0.4,0.9-0.9,1.8-1.4,2.8c-0.3,0.3-0.5,0.5-0.6,0.8c-0.2,0.3-0.4,0.6-0.6,1
			c-0.7,1.2-1.4,2.5-2.1,3.8c-0.7,1.4-1,2.8-1,4.4c-0.1,3.7-0.3,6.9-0.4,9.7c0,2.4-0.1,5.1-0.1,8.1c-0.1,3-0.1,5.9-0.1,9
			c0,3,0,5.9,0,8.8c0,3,0.1,5.6,0.2,8.1c1.3-0.3,3-0.5,5-0.9s4-0.7,5.9-1.1c0.4-0.1,0.7-0.2,1-0.3c0.3-0.1,0.6-0.1,1-0.1
			c2.4-0.5,4.5-0.9,6.6-1.4c2-0.4,3.6-0.7,4.5-1c0-0.6-0.1-1.3-0.1-2c-0.1-0.7-0.1-1.4-0.1-2.1c-0.5-7-0.7-14.2-0.5-21.7
			c0.1-7.5,0.5-16.4,1.1-26.7c-0.5-1.5-0.9-2.8-1.2-4.1c-0.3-1.3-0.5-2.4-0.5-3.4c0-2,0.5-3.6,1.7-5.1c1.1-1.4,2.8-2.7,5.2-4
			c0.5-0.3,1.1-0.4,2-0.5c0.8-0.1,1.7-0.2,2.5-0.2c1.1,0,2.2,0.1,3.4,0.3c1.2,0.2,2.5,0.5,3.8,0.8c3,0.8,5.8,2.2,8.4,4.1
			c2.6,1.9,4,4.3,4.1,7.2c0,1.2-0.3,2.3-0.9,3.3c-0.6,1-1.3,2-2,3c-0.1,0-0.2,0.1-0.3,0.1c-0.1,0.1-0.1,0.2-0.1,0.3
			c-0.9,0.8-1.7,1.8-2.3,3c-0.7,1.1-1,2.3-1,3.7c0,1.5,0,2.9,0,4.2c0,3.1-0.1,7.2-0.1,12.5c-0.1,5.3-0.1,10.9,0.1,16.8
			c0.1,1.8,0.2,3.7,0.2,5.5s0.1,3.6,0.2,5.3c0.5,0.4,1.1,0.8,1.7,1.5c0.6,0.6,1.2,1.3,1.9,2c0.5,0.7,1.1,1.5,1.7,2.3
			s1.2,1.6,1.7,2.5c0.6,1.1,1.1,2.2,1.6,3.3c0.4,1.1,0.6,2.1,0.6,3c0,0.3,0,0.5,0,0.6c0,0.2-0.1,0.4-0.2,0.6c-0.6,1.5-1.4,2.5-2.5,3
			s-2.1,1.1-3.3,1.6c-0.1,0-0.2,0-0.3,0s-0.2,0.1-0.3,0.2c-0.4,0.1-0.8,0.3-1.3,0.5s-0.9,0.4-1.3,0.6c-0.1,2.3-0.2,4.8-0.2,7.4
			s0,5.3,0,8c0,3.2,0.1,6.3,0.1,9.3c0.1,3.1,0.1,5.8,0.1,8.3c0.1,2.7,0.3,5.7,0.4,9.2c0,0.8,0.1,1.7,0.4,2.6
			c0.3,0.8,0.5,1.7,0.9,2.6c0.3,0.8,0.5,1.7,0.7,2.5c0.2,0.8,0.4,1.6,0.4,2.3c0,1.1-0.4,2.2-1.2,3.2c-0.8,1.1-2.5,2.1-4.9,3
			c-0.5,0.1-1,0.3-1.6,0.4c-0.5,0.1-1.2,0.2-2,0.2c-1.1,0-2.4-0.1-3.7-0.4c-1.4-0.3-2.8-0.5-4.3-0.9c-2.6-0.8-5.1-2-7.3-3.3
			c-2.3-1.3-4-3-4.9-4.7c-0.1-0.3-0.3-0.5-0.4-0.7c-0.1-0.3-0.2-0.5-0.2-0.9c-0.1-0.3-0.2-0.5-0.2-0.7c0-0.3,0-0.5,0-0.7
			c0-1.6,0.4-3.2,1.2-5c0.8-1.7,1.7-3.6,2.5-5.7c0.3-0.5,0.5-1,0.7-1.6c0.3-0.5,0.5-1.1,0.7-1.6c0.1-1.8,0.2-4,0.2-6.4s0-5,0-7.5
			c0-1.6,0-3.1,0-4.6s-0.1-3-0.2-4.4c0-1.8,0-3.5,0-5.1s0-2.7,0-3.6c-5.7,1.2-10.3,2.2-13.7,3c-0.1,0-0.3,0-0.4,0
			c-2,0.4-4,0.8-5.9,1.2s-3.6,0.8-4.9,1c0,2.2,0,4.5,0,7.1s0,5.1,0,7.8c0.1,1.7,0.2,3.5,0.2,5.2c0,1.8,0,3.5,0,5.2
			c0,4.1,0.1,7.6,0.1,10.6s0.1,5,0.1,5.9c0,1,0.1,2,0.3,3c0.2,1,0.4,2,0.6,3c0.1,0.1,0.2,0.3,0.2,0.4s0.1,0.3,0.2,0.4
			c0.3,1.2,0.5,2.4,0.7,3.6c0.3,1.2,0.4,2.2,0.4,3.2c0,1.1-0.2,2.2-0.5,3.1c-0.3,1-1,1.9-2,2.7c-0.9,1-1.9,1.6-3,2
			c-1.2,0.3-2.5,0.5-3.8,0.5c-0.4,0-0.8-0.1-1.2-0.1s-0.9-0.1-1.2-0.1c-2.2-0.4-4.4-1.1-6.4-2.1c-2-1.1-3.7-2.2-5.1-3.4
			c-0.3-0.4-0.5-0.7-0.9-1s-0.5-0.6-0.6-0.8C2073.6,901.9,2073.4,901.2,2073,900.6z"/>
	</g>
</g>
</svg>
