<?xml version="1.0" encoding="utf-8"?>
<!-- Generator: Adobe Illustrator 21.0.2, SVG Export Plug-In . SVG Version: 6.00 Build 0)  -->
<svg version="1.1" id="Layer_1" xmlns="http://www.w3.org/2000/svg" xmlns:xlink="http://www.w3.org/1999/xlink" x="0px" y="0px"
	 viewBox="0 0 396 332.8" style="enable-background:new 0 0 396 332.8;" xml:space="preserve">
<style type="text/css">
	.st0{fill:#D1D1D1;}
</style>
<title>Fairtech logo</title>
<g id="Layer_2">
	<g id="Layer_1-2">
		<path class="st0" d="M101.2,88.3c-3.4-38.5,1.8-61.6,18-64.7c29.4-1,29.7,17.9,35.3,30.4c3,6.5,10,10.3,17.1,9.3
			C251.3,52.8,302,15.1,391.1,0.1c2.3-0.4,4.5,1.2,4.8,3.5c0,0.3,0.1,0.6,0,0.9c-1.1,20.4-17,30.3-47.1,30.2
			c-5.9-0.1-11.7,0.6-17.5,1.9c-56.4,13.3-112.6,31-168.7,52.7c-7.9,3-12.7,10.9-11.9,19.3c3.1,28.7-6.9,76.2,32.9,56.5
			c3.1-1.5,6.3-2.9,9.5-4.1c61.2-22.3,67.2-66.6,98.7-49.5c12.2,12.2,8.1,31.1-25.7,35.1c-20.3,2.5-40.3,16.9-89,43.4
			c-5.7,3.1-9.2,9.2-9.2,15.7c0.3,29.2-5.5,67,13.3,87.1c2.8,2.8,4.9,6.2,6.3,9.9c3.8,11.1,0.2,22.9-12.2,28
			c-11.7,4.9-25.1,1-33.4-8.6c-25.1-29.3-24.4-61.9-23.3-96.3c0.1-2.5-1.8-4.5-4.3-4.6c-0.4,0-0.8,0-1.2,0.1
			c-12.5,3.2-21.7,19.8-42.3,29.7c-3,1.4-6.6,0-7.9-3c-0.5-1-0.6-2.2-0.5-3.3c2.3-14.6,14.9-30.6,49.2-37.9c2.7-0.5,4.6-2.8,4.7-5.6
			c1.1-29.5-1.3-56.9-7.2-82.1c-1.7-7.4-9-12-16.4-10.3c-0.6,0.1-1.2,0.3-1.8,0.5c-53.4,20.4-84.9,61.8-91,46.6
			c-4-29,41.1-38.7,97.4-61.8C99.9,93.1,101.3,90.8,101.2,88.3z"/>
	</g>
</g>
</svg>
